<svg height="400" version="1.1" width="640" xmlns="http://www.w3.org/2000/svg" xmlns:xlink="http://www.w3.org/1999/xlink" style="overflow: hidden; position: relative;"><desc style="-webkit-tap-highlight-color: rgba(0, 0, 0, 0);">Created with Raphaël 2.3.0</desc><defs style="-webkit-tap-highlight-color: rgba(0, 0, 0, 0);"></defs><path fill="#3069bf" stroke="none" d="M320,180L177.34152255572698,133.64745084375787A150,150,0,0,1,462.658477444273,133.6474508437579Z" stroke-width="1" stroke-linejoin="round" style="-webkit-tap-highlight-color: rgba(0, 0, 0, 0); stroke-linejoin: round;"></path><path fill="#a3bf30" stroke="none" d="M320,180L462.658477444273,133.6474508437579A150,150,0,0,1,320,330Z" stroke-width="1" stroke-linejoin="round" style="-webkit-tap-highlight-color: rgba(0, 0, 0, 0); stroke-linejoin: round;"></path><path fill="#bf5b30" stroke="none" d="M320,180L320,330A150,150,0,0,1,177.34152255572698,226.35254915624213Z" stroke-width="1" stroke-linejoin="round" style="-webkit-tap-highlight-color: rgba(0, 0, 0, 0); stroke-linejoin: round;"></path><path fill="#bfa330" stroke="none" d="M320,180L177.34152255572698,226.35254915624213A150,150,0,0,1,177.34152255572695,133.6474508437579Z" stroke-width="1" stroke-linejoin="round" style="-webkit-tap-highlight-color: rgba(0, 0, 0, 0); stroke-linejoin: round;"></path><path fill="#000000" stroke="none" d="M320,180L177.34152255572698,133.64745084375787A150,150,0,0,1,462.658477444273,133.6474508437579Z" fill-opacity="0" style="-webkit-tap-highlight-color: rgba(0, 0, 0, 0); fill-opacity: 0;"></path><path fill="#000000" stroke="none" d="M320,180L462.658477444273,133.6474508437579A150,150,0,0,1,320,330Z" fill-opacity="0" style="-webkit-tap-highlight-color: rgba(0, 0, 0, 0); fill-opacity: 0;"></path><path fill="#000000" stroke="none" d="M320,180L320,330A150,150,0,0,1,177.34152255572698,226.35254915624213Z" fill-opacity="0" style="-webkit-tap-highlight-color: rgba(0, 0, 0, 0); fill-opacity: 0;"></path><path fill="#000000" stroke="none" d="M320,180L177.34152255572698,226.35254915624213A150,150,0,0,1,177.34152255572695,133.6474508437579Z" fill-opacity="0" style="-webkit-tap-highlight-color: rgba(0, 0, 0, 0); fill-opacity: 0;"></path><circle cx="505" cy="190" r="5" fill="#3069bf" stroke="none" style="-webkit-tap-highlight-color: rgba(0, 0, 0, 0);" transform="matrix(1,0,0,1,0,-32.2)"></circle><text x="520" y="190" text-anchor="start" font-family="&quot;Arial&quot;" font-size="10px" stroke="none" fill="#000000" style="-webkit-tap-highlight-color: rgba(0, 0, 0, 0); text-anchor: start; font: 12px Arial, sans-serif;" font="12px Arial, sans-serif" transform="matrix(1,0,0,1,0,-32.2)"><tspan style="-webkit-tap-highlight-color: rgba(0, 0, 0, 0);" dy="4">40</tspan></text><circle cx="505" cy="206.8" r="5" fill="#a3bf30" stroke="none" style="-webkit-tap-highlight-color: rgba(0, 0, 0, 0);" transform="matrix(1,0,0,1,0,-32.2)"></circle><text x="520" y="206.8" text-anchor="start" font-family="&quot;Arial&quot;" font-size="10px" stroke="none" fill="#000000" style="-webkit-tap-highlight-color: rgba(0, 0, 0, 0); text-anchor: start; font: 12px Arial, sans-serif;" font="12px Arial, sans-serif" transform="matrix(1,0,0,1,0,-32.2)"><tspan style="-webkit-tap-highlight-color: rgba(0, 0, 0, 0);" dy="3.999996948242199">30</tspan></text><circle cx="505" cy="223.60000000000002" r="5" fill="#bf5b30" stroke="none" style="-webkit-tap-highlight-color: rgba(0, 0, 0, 0);" transform="matrix(1,0,0,1,0,-32.2)"></circle><text x="520" y="223.60000000000002" text-anchor="start" font-family="&quot;Arial&quot;" font-size="10px" stroke="none" fill="#000000" style="-webkit-tap-highlight-color: rgba(0, 0, 0, 0); text-anchor: start; font: 12px Arial, sans-serif;" font="12px Arial, sans-serif" transform="matrix(1,0,0,1,0,-32.2)"><tspan style="-webkit-tap-highlight-color: rgba(0, 0, 0, 0);" dy="3.9999938964843977">20</tspan></text><circle cx="505" cy="240.40000000000003" r="5" fill="#bfa330" stroke="none" style="-webkit-tap-highlight-color: rgba(0, 0, 0, 0);" transform="matrix(1,0,0,1,0,-32.2)"></circle><text x="520" y="240.40000000000003" text-anchor="start" font-family="&quot;Arial&quot;" font-size="10px" stroke="none" fill="#000000" style="-webkit-tap-highlight-color: rgba(0, 0, 0, 0); text-anchor: start; font: 12px Arial, sans-serif;" font="12px Arial, sans-serif" transform="matrix(1,0,0,1,0,-32.2)"><tspan style="-webkit-tap-highlight-color: rgba(0, 0, 0, 0);" dy="4.000006103515659">10</tspan></text></svg>