<?xml version="1.0" encoding="UTF-8"?>
<!DOCTYPE svg PUBLIC "-//W3C//DTD SVG 1.1//EN" "http://www.w3.org/Graphics/SVG/1.1/DTD/svg11.dtd">
<svg xmlns="http://www.w3.org/2000/svg" version="1.1" width="60px" height="60px" style="shape-rendering:geometricPrecision; text-rendering:geometricPrecision; image-rendering:optimizeQuality; fill-rule:evenodd; clip-rule:evenodd" xmlns:xlink="http://www.w3.org/1999/xlink">
<g><path style="opacity:0.687" fill="#477e78" d="M 53.5,6.5 C 45.6841,5.50761 37.6841,5.17428 29.5,5.5C 32.7446,4.80116 36.7446,4.46782 41.5,4.5C 45.8333,4.83333 50.1667,5.16667 54.5,5.5C 54.3764,6.10667 54.0431,6.44001 53.5,6.5 Z"/></g>
<g><path style="opacity:1" fill="#11524b" d="M 29.5,5.5 C 37.6841,5.17428 45.6841,5.50761 53.5,6.5C 49.9507,14.5998 46.1174,22.5998 42,30.5C 37.2951,22.4235 33.1284,14.0902 29.5,5.5 Z"/></g>
<g><path style="opacity:1" fill="#1bdca7" d="M 4.5,6.5 C 13.3456,8.35155 21.3456,12.0182 28.5,17.5C 20.908,22.2139 13.0747,26.5472 5,30.5C 4.50029,22.5069 4.33362,14.5069 4.5,6.5 Z"/></g>
<g><path style="opacity:0.911" fill="#fcf5f5" d="M 54.5,52.5 C 54.5,44.8333 54.5,37.1667 54.5,29.5C 53.5,29.5 52.5,29.5 51.5,29.5C 52.5203,28.0462 53.687,27.7129 55,28.5C 55.8228,36.6775 55.6561,44.6775 54.5,52.5 Z"/></g>
<g><path style="opacity:1" fill="#efbec0" d="M 51.5,29.5 C 52.5,29.5 53.5,29.5 54.5,29.5C 54.5,37.1667 54.5,44.8333 54.5,52.5C 54.44,53.0431 54.1067,53.3764 53.5,53.5C 52.2054,52.9017 50.8721,52.4017 49.5,52C 43.01,48.8461 36.6767,45.5127 30.5,42C 36.4751,36.3365 43.4751,32.1698 51.5,29.5 Z"/></g>
<g><path style="opacity:0.994" fill="#e7d9ce" d="M 16.5,30.5 C 23.0092,36.8518 26.8426,44.5185 28,53.5C 20.2199,54.9829 12.3866,55.3163 4.5,54.5C 7.47281,45.8877 11.4728,37.8877 16.5,30.5 Z"/></g>
</svg>
